/* XPM */
static char *_19279c0ddf1430ab58392b2eb6a9c01CFwJSKw6ZKyNryka[] = {
/* columns rows colors chars-per-pixel */
"64 64 256 2 ",
"   c black",
".  c #0000A8",
"X  c #00A800",
"o  c #00A8A8",
"O  c #A80000",
"+  c #A800A8",
"@  c #A85400",
"#  c gray66",
"$  c gray33",
"%  c #5454FC",
"&  c #54FC54",
"*  c #54FCFC",
"=  c #FC5454",
"-  c #FC54FC",
";  c #FCFC54",
":  c gray99",
">  c #ECECEC",
",  c gainsboro",
"<  c #D0D0D0",
"1  c #C0C0C0",
"2  c #B4B4B4",
"3  c gray66",
"4  c #989898",
"5  c gray55",
"6  c #7C7C7C",
"7  c gray44",
"8  c #646464",
"9  c gray33",
"0  c #484848",
"q  c gray22",
"w  c #2C2C2C",
"e  c #202020",
"r  c #FC0000",
"t  c #EC0000",
"y  c #E00000",
"u  c #D40000",
"i  c #C80000",
"p  c #BC0000",
"a  c #B00000",
"s  c #A40000",
"d  c #980000",
"f  c #880000",
"g  c #7C0000",
"h  c #700000",
"j  c #640000",
"k  c #580000",
"l  c #4C0000",
"z  c #400000",
"x  c #FCD8D8",
"c  c #FCB8B8",
"v  c #FC9C9C",
"b  c #FC7C7C",
"n  c #FC5C5C",
"m  c #FC4040",
"M  c #FC2020",
"N  c #FC0000",
"B  c #FCA85C",
"V  c #FC9840",
"C  c #FC8820",
"Z  c #FC7800",
"A  c #E46C00",
"S  c #CC6000",
"D  c #B45400",
"F  c #9C4C00",
"G  c #FCFCD8",
"H  c #FCFCB8",
"J  c #FCFC9C",
"K  c #FCFC7C",
"L  c #FCF85C",
"P  c #FCF440",
"I  c #FCF420",
"U  c #FCF400",
"Y  c #E4D800",
"T  c #CCC400",
"R  c #B4AC00",
"E  c #9C9C00",
"W  c #848400",
"Q  c #706C00",
"!  c #585400",
"~  c #404000",
"^  c #D0FC5C",
"/  c #C4FC40",
"(  c #B4FC20",
")  c #A0FC00",
"_  c #90E400",
"`  c #80CC00",
"'  c #74B400",
"]  c #609C00",
"[  c #D8FCD8",
"{  c #BCFCB8",
"}  c #9CFC9C",
"|  c #80FC7C",
" . c #60FC5C",
".. c #40FC40",
"X. c #20FC20",
"o. c #00FC00",
"O. c #00FC00",
"+. c #00EC00",
"@. c #00E000",
"#. c #00D400",
"$. c #04C800",
"%. c #04BC00",
"&. c #04B000",
"*. c #04A400",
"=. c #049800",
"-. c #048800",
";. c #047C00",
":. c #047000",
">. c #046400",
",. c #045800",
"<. c #044C00",
"1. c #044000",
"2. c #D8FCFC",
"3. c #B8FCFC",
"4. c #9CFCFC",
"5. c #7CFCF8",
"6. c #5CFCFC",
"7. c #40FCFC",
"8. c #20FCFC",
"9. c #00FCFC",
"0. c #00E4E4",
"q. c #00CCCC",
"w. c #00B4B4",
"e. c #009C9C",
"r. c #008484",
"t. c #007070",
"y. c #005858",
"u. c #004040",
"i. c #5CBCFC",
"p. c #40B0FC",
"a. c #20A8FC",
"s. c #009CFC",
"d. c #008CE4",
"f. c #007CCC",
"g. c #006CB4",
"h. c #005C9C",
"j. c #D8D8FC",
"k. c #B8BCFC",
"l. c #9C9CFC",
"z. c #7C80FC",
"x. c #5C60FC",
"c. c #4040FC",
"v. c #2024FC",
"b. c #0004FC",
"n. c #0000FC",
"m. c #0000EC",
"M. c #0000E0",
"N. c #0000D4",
"B. c #0000C8",
"V. c #0000BC",
"C. c #0000B0",
"Z. c #0000A4",
"A. c #000098",
"S. c #000088",
"D. c #00007C",
"F. c #000070",
"G. c #000064",
"H. c #000058",
"J. c #00004C",
"K. c #000040",
"L. c #282828",
"P. c #FCE034",
"I. c #FCD424",
"U. c #FCCC18",
"Y. c #FCC008",
"T. c #FCB400",
"R. c #B420FC",
"E. c #A800FC",
"W. c #9800E4",
"Q. c #8000CC",
"!. c #7400B4",
"~. c #60009C",
"^. c #500084",
"/. c #440070",
"(. c #340058",
"). c #280040",
"_. c #FCD8FC",
"`. c #FCB8FC",
"'. c #FC9CFC",
"]. c #FC7CFC",
"[. c #FC5CFC",
"{. c #FC40FC",
"}. c #FC20FC",
"|. c #FC00FC",
" X c #E000E4",
".X c #C800CC",
"XX c #B400B4",
"oX c #9C009C",
"OX c #840084",
"+X c #6C0070",
"@X c #580058",
"#X c #400040",
"$X c #FCE8DC",
"%X c #FCE0D0",
"&X c #FCD8C4",
"*X c #FCD4BC",
"=X c #FCCCB0",
"-X c #FCC4A4",
";X c #FCBC9C",
":X c #FCB890",
">X c #FCB080",
",X c #FCA470",
"<X c #FC9C60",
"1X c #F0945C",
"2X c #E88C58",
"3X c #DC8854",
"4X c #D08050",
"5X c #C87C4C",
"6X c #BC7848",
"7X c #B47044",
"8X c #A86840",
"9X c #A0643C",
"0X c #9C6038",
"qX c #905C34",
"wX c #885830",
"eX c #80502C",
"rX c #744C28",
"tX c #6C4824",
"yX c #5C4020",
"uX c #543C1C",
"iX c #483818",
"pX c #403018",
"aX c #382C14",
"sX c #28200C",
"dX c #600064",
"fX c #006464",
"gX c #006060",
"hX c #00001C",
"jX c #00002C",
"kX c #302410",
"lX c #480048",
"zX c #500050",
"xX c #000034",
"cX c gray11",
"vX c #4C4C4C",
"bX c gray36",
"nX c gray25",
"mX c gray19",
"MX c #343434",
"NX c #D8F4F4",
"BX c #B8E8E8",
"VX c #9CDCDC",
"CX c #74C8C8",
"ZX c #48C0C0",
"AX c #20B4B4",
"SX c #20B0B0",
"DX c #00A4A4",
"FX c #009898",
"GX c #008C8C",
"HX c #008484",
"JX c #007C7C",
"KX c #007878",
"LX c #007474",
"PX c #007070",
"IX c #006C6C",
"UX c #980088",
/* pixels */
"UXUXUXUXUXUXUXUXUXUXUXUXUXUXUXUXUXUXUXUXUXUXUXUXUXUXUXUXUXUXUXUXUXUXUXUXUXUXUXUXUXUXUXUXUXUXUXUXUXUXUXUXUXUXUXUXUXUXUXUXUXUXUXUX",
"UXUXUXUXUXUXUXUXUXUXUXUXUXUXUXUXUXUXUXUXUXUXUXUXUXUX1.<.UX1.UXw UXUXUXUXUXUXUXUXUXUXUXUXUXUXUXUXUXUXUXUXUXUXUXUXUXUXUXUXUXUXUXUX",
"UXUXUXUXUXUXUXUXUXUXUXUXUXUXe UXUX;.UXUXUXUXUXUXUX,.e 1.,.1.1.<.aX1.UXUXUXUXUXe UXUXUXUXUXw UXUXUXUXUXUXUXUXUXUXUXUXUXUXUXUXUXUX",
"UXUXUXUXUXUXUXUX1.<.<.1.UXw 1.,.1.,.1.UXUXUXUX,.e e 1.<.<.1.e <.pX,.e UXe UXw w 1.UXUXUXw 1.<.UXUXUXUXUXUXUXUXUXUXUXUXUXUXUXUXUX",
"UXUXUXUXUXUXUX1.aX<.1.1.sX1.w ,.1.1.e e UX,.,.e 1.1.1.e 1.e 1.1.e e e e UXUXe e 1.1.aX<.aX<.aX1.UXUXUXUXUXUXUXUXUXUXUXUXUXUXUXUX",
"UXUXUXUXUXUX,.<.w 1.<.<.;.,.,.<.e <.<.e e e e ,.1.1.e e 1.1.,.<.<.1.e e e 1.w 1.<.e 1.<.1.1.1.<.UXUX1.UXUXUXUXUXUXUXUXUXUXUXUXUX",
"UXUXUXUX,.,.1.1.;.1.<.1.,.1.,.<.<.<.,.<.,.e 1.,.1.e 1.1.e w <.e 1.<.e e w w 1.e 1.e <.aX<.1.1.1.1.1.,.1.UXUXUXUXUXUXUXUXUXUXUXUX",
"UXUXUXUXUX<.,.1.,.<.<.1.1.,.e ,.,.1.<.,.1.1.,.e ,.e aXw sX<.<.e e e e e 1.e 1.e 1.1.e e w 1.1.w ,.1.1.w 1.UXUXUXUXUXUXUXUXUXUXUX",
"UXUXUXUXe ,.1.w 1.1.1.<.,.,.<.<.1.1.,.;.1.1.e 1.e w kXw e 1.1.e <.1.e sXe e 1.e e 1.e 1.<.w e <.1.1.,.aX,.UXUXUXUXUXUXUXUXUXUXUX",
"UXUXUXUX,.1.e w <.1.<.w 1.1.<.1.,.e <.,.w w e 1.1.e e w 1.1.e w w e e pXsXe aXw <.<.<.pX1.e e e 1.e w 1.UXUXUXUXUXUXUXUXUXUXUXUX",
"UXw ,.w 1.e 1.<.e w e 1.w e ,.,.1.1.e 1.w 1.w sX,.e e e w e e w e w e e sXe 1.e 1.e e e e e w e e <.1.sX<.UXUXUXUXUXUXUXUXUXUXUX",
"UXUX1.w e ,.e 1.<.e 1.1.<.1.1.,.1.;.,.,.1.e 1.1.1.e w e e sXw 1.e e sXe e aXe 1.e sXe e w e 1.e e <.e <.e w UXUXUXUXaXUXUXUXUXUX",
"UX,.,.,.,.1.1.<.1.<.<.,.w w 1.w 1.1.e 1.1.,.1.1.e e e e e e e e w e w 1.1.e 1.1.e 1.e 1.e e 1.e e <.<.<.1.<.1.UX1.1.e e UXUXUXUX",
"UXUX,.;.1.,.e <.<.w <.w ,.1.w 1.,.,.,.,.e ;.,.e e w kXsXe e e e w w e 1.1.w 1.e e e sXe e e w e 1.<.e <.<.1.<.1.e e 1.w pXUXUXUX",
"UXUX1.,.,.,.e 1.w w w 1.1.1.,.1.w ,.,.1.1.e 1.e e e aXe w e w w e e e w e e e 1.e w e 1.1.w e w w e e e <.e 1.1.e w e e e 1.UXUX",
"UXUXUX,.;.<.1.e <.1.<.<.<.w 1.w e 1.e e ,.1.,.w sXe aX,.e e w e w ,.e e w w e e e w 1.e sX1.w 1.e w e <.1.e 1.1.e e 1.1.w aXUXUX",
"UXUX1.1.1.pX<.1.1.,.1.w w ,.1.,.,.1.,.,.1.1.,.w e 1.e sXe e e 1.w w 1.pX1.e e e 1.e 1.e 1.e e e w w e <.e <.w 1.,.1.1.1.e ,.UXUX",
"UX1.w 1.<.1.1.1.1.w ,.<.,.1.,.1.w e w e 1.w w sXw e pX1.1.1.1.1.w e 1.e w 1.sX1.e 1.1.e e w e e e e e pXe e 1.,.w e aXe UXUXUXUX",
"UXUX1.1.aX<.1.<.1.<.w ,.,.,.1.sX1.sXe e e w 1.1.1.e e kXw 1.sXe e e w 1.e e e 1.e 1.e 1.1.w e e e e e aXe e e e e aXe UXUXUXUXUX",
"UXUXUXw w 1.1.1.1.sX1.,.1.1.w 1.1.e e e w w w e e w 1.w sXe 1.w w e 1.e 1.w e sX1.1.1.1.1.e 1.w ,.1.e e e aXe e e 1.e sXUXUXUXUX",
"UXUXUXw 1.1.1.,.w ,.,.1.w e 1.w e e w w e w w 1.e e 1.1.1.e ,.1.pX1.1.<.e e e e e e 1.1.e w e 1.1.1.e e e 1.e e 1.<.aX<.e <.UXUX",
"UXUXUXUXUXe w ,.w w ;.w 1.,.e e ,.w e e e w e e e e e ,.e ,.e e e 1.,.<.e sXe e e 1.e w 1.1.1.e w e e e w w e e e e <.1.<.UXUXUX",
"UXUXUXUXUXUXw 1.,.1.w w 1.,.,.,.e e ,.,.pX1.w 1.e 1.1.e e e e e sXkX<.1.<.<.e w e e 1.e e 1.e 1.e 1.w e e e <.e <.<.<.1.1.1.UXUX",
"UXUXUXUXUXUXUXaXw sXw ,.e 1.w ,.aXe e e e w 1.1.e 1.e w aXaX<.1.e <.<.<.;.<.e <.e w e e 1.e 1.1.1.w pXw w e 1.<.<.e <.1.1.<.<.UX",
"UXUXUXUXUXUXUXw ,.,.yXw e e 1.1.sXw e ,.,.e ,.,.1.aXw aXw e aX<.aXe w 1.e <.e 1.e e e 1.aX1.1.1.e e 1.w e 1.1.e 1.e <.e 1.1.UXUX",
"UXUXUXUXUXUXUXUX1.,.w w aX1.,.,.e ,.e sX,.sXe 1.1.e 1.aXw e e e <.<.<.<.e <.<.e w e e e ,.1.e 1.e e w 1.e e w <.1.<.e e 1.<.sXUX",
"UXUXUXUXUX,.1.,.UX1.,.1.1.aXe ,.,.w sXsXw e 1.e e 1.1.aXaXe <.sXsX1.e 1.1.e <.e e e w e 1.e 1.e aX,.1.1.e w <.e <.<.e 1.e 1.e UX",
"UXUXUXUXUX1.1.e 1.e e aX1.1.,.,.,.e ,.1.e ,.1.e e e e w e aXaX<.,.e 1.1.1.e e 1.e e 1.e uXe e e e w w e e 1.1.1.1.1.<.e 1.1.UXUX",
"UXUXUX1.1.1.kX1.,.1.1.e <.1.,.1.1.,.w e 1.e 1.1.1.e e sXe 1.aXe 1.<.e 1.<.,.e w e w e e 1.1.e kXe e e 1.1.1.e e 1.1.<.e e UXUXUX",
"UXUX1.1.,.1.1.e 1.,.e <.<.1.<.<.sX,.w w w kXe 1.e w e e e sXe 1.e e 1.e 1.e w 1.1.w w w e w kX,.<.e e UXUXe UX1.w UX1.UXUXUXUXUX",
"UXUX,.1.,.,.;.,.1.e ,.1.<.w 1.<.,.,.1.1.1.1.e w e e 1.1.e aX1.aXuX1.e aXkXw aXw e w w w e e 1.<.1.e <.e <.UXe UXUXUXUXUXUXUXUXUX",
"UX,.UX1.,.1.,.w pX,.1.<.w 1.<.1.1.w <.w 1.1.w w e e e e e e 1.1.1.sXsXe ,.e e e e e e w e aX1.e <.<.1.UXe UXUXUXUXUXUXUXUXUXUXUX",
"UXUX,.,.,.,.1.e ,.1.w <.w <.<.1.w aX1.e w w w 1.w w w e sXaXaXsXsX1.aX1.e e e w e e w e w e e <.<.e e e e UXUXUXUXUXUXUXUXUXUXUX",
"UX1.kX,.;.,.,.,.<.e <.1.1.1.w e e 1.e e 1.1.e w e e e w 1.sXpXkXe 1.1.aXe w e w e w e e w 1.<.e e <.<.e UXUXUXUXUXUXUXUXUXUXUXUX",
"UXUX1.1.1.1.,.<.<.<.1.e 1.<.1.e e 1.1.w w 1.e e e 1.e e w sXsXkXkXaXaX,.e e <.,.e e e 1.e 1.e 1.w <.1.aXaX1.e UXUXUXUXUXUXUXUXUX",
"UX1.uX,.1.,.aX<.1.,.1.w 1.w 1.e w w ;.e e e e 1.e sXw w e aXsXsXkXkXaX,.<.e 1.e e e e 1.w <.<.1.<.<.e 1.e 1.UXUXUXe UXUXUXUXUXUX",
"UX1.1.1.,.,.1.,.,.w ,.e 1.w e e 1.1.w e e e w e w sXw e e aXpXL.sXsX,.<.e e e ,.<.e e 1.w w e 1.1.<.<.w <.e UXe 1.UXUXUXUXUXUXUX",
"UXUXUX1.1.1.w e w ,.e w <.1.1.w w aXe w e e e w aXw e 1.e pXsXsXsX1.1.aXaXe e e e e e w w e e e 1.1.e e e e 1.1.1.1.UXUXUXUXUXUX",
"UXUXUXUX1.,.,.<.1.<.1.<.w w w w pX1.e e e pXe e 1.1.e w sXpXsXkXcXsX,.aXe 1.e 1.<.e e e e w e <.1.1.w 1.w 1.e e e 1.1.UXUXUXUXUX",
"UXUXUXUXUXe sXw ,.w 1.e w w w 1.1.aXe e e e e w e aXe e 1.aXsXsXsXkXkX<.<.<.<.e 1.<.e w e w 1.1.e w 1.w ,.1.UXe 1.1.1.UXUXUXUXUX",
"UXUXUXUX1.,.w e 1.,.,.1.w e e e 1.e 1.e e e aXaXaXw e ,.w aXaXkXsX1.<.1.1.1.e <.e e e e w 1.1.;.e e 1.w e e w e 1.e UXUXUXUXUXUX",
"UXUX1.,.,.,.,.w w 1.;.w e e 1.w e e e e 1.w aXe 1.,.w w w aXkXpX1.1.aX1.1.<.1.e e 1.e e e e w w e <.e e e <.e sX1.UX1.UXUXUXUXUX",
"UX1.,.1.,.,.1.e w ,.e w 1.1.e e e w 1.e e w 1.aX1.,.e yXw pXsXsXsXsX1.sXe 1.,.e 1.e e e 1.e 1.,.e e <.e e aX,.e 1.e e UXUXUXUXUX",
"UXUX1.,.w 1.;.1.e e w w 1.yXe e e e w w e pX1.1.aXaXaXaXw kXaXsX,.1.1.,.1.,.<.aX,.e 1.1.e e e 1.e ,.<.1.e <.e ;.,.1.UX1.UXUXUXUX",
"UX1.uX1.1.,.pXw <.w e e e <.1.e w e w e w w 1.1.w 1.,.UXw aXpXsXsXe e 1.1.e w e kX1.,.e 1.1.pX1.1.1.1.e aX1.;.<.,.1.1.1.aXUXUXUX",
"UXUX1.1.pX,.,.aXe 1.1.,.<.1.,.e e e w e e e e e 1.w w e w aXaXpXsXaXsXw ,.1.1.UXUXkXe aXe e ,.e e <.1.1.1.<.<.,.UX,.aX1.UXUXUXUX",
"UXUXUX,.1.pX1.e 1.<.e <.<.<.e e w w w e e aXsXw e 1.,.,.,.aXaXaXpXaXaXw UXw aXUXUXUXpXaXaXe ,.e e e <.1.<.e aXaX,.aXaX1.UXUXUXUX",
"UXUX1.pX1.aXUX1.<.,.,.<.w <.,.e e e e e e e w e e ,.UX,.,.yXaXaXaXpXaXaXsXUXUXUXUXUXaXkXsXsXaXe 1.e e 1.<.1.e ,.,.1.uXUXUXUXUXUX",
"UXUXUXUXUXUXUX1.1.1.,.,.w ,.e e e 1.1.e e 1.w 1.e w aX,.,.aXaXaXw aXaXsXsXUXUXUXUXaXsXe UX1.kXe 1.e 1.e <.1.1.pXpX1.1.UXUXUXUXUX",
"UXUXUXUXUXUXUXUXe 1.1.,.,.<.,.e w 1.1.1.w 1.e w ,.w pXaX,.UXkXaXaXaXaXkXsXsXUXUXaXsXUXUXUXUX1.1.1.1.<.1.1.aX1.1.UX1.aXpXUXUXUXUX",
"UXUXUXUXUXUXUX1.e ,.w <.,.w w w e w w e e 1.e w w w ,.UXUXUXaXpXaXaXaXaXaXsXsXkXpXsXUXUXUXUXUXUX1.1.yXaXaXsX1.aXpX1.sXaXUXUXUXUX",
"UXUXUXUXUXUXUXUX,.UXaX1.<.1.e 1.w 1.e e w 1.UXw 1.1.w UXUXUXpXpXaXaXaXaXcXkXaXaXsXUXUXUXUXUXUXUXUX1.1.UX1.UXUXUXsXUXUXUXUXUXUXUX",
"UXUXUXUXUXUXUXUX1.w ,.aX,.1.w ,.e UX1.UX1.1.UXw 1.UXUXUXUXUXpXaXaXpXkXpXpXaXsXsXUXUXUXUXUXUXUXUXUXUXUXUXUX1.UX1.UXUXUXUXUXUXUXUX",
"UXUXUXUXUXUXUXUXUXUXUXUXw 1.1.UXw 1.1.1.UXw UXUXUXUXUXUXUXUXiXaXaXaXkXaXaXaXsXUXUXUXUXUXUXUXUXUXUXUXUXUXUXUXUXUXUXUXUXUXUXUXUXUX",
"UXUXUXUXUXUXUXUXUXUXUXUXUXUXUXUXUX1.UXUXUXUXUXUXUXUXUXUXUXUXiXaXaXpXsXaXaXsXsXUXUXUXUXUXUXUXUXUXUXUXUXUXUXUXUXUXUXUXUXUXUXUXUXUX",
"UXUXUXUXUXUXUXUXUXUXUXUXUXUXUXUXUXUXUXUXUXUXUXUXUXUXUXUXUXUXuXpXkXaXsXaXaXsXsXUXUXUXUXUXUXUXUXUXUXUXUXUXUXUXUXUXUXUXUXUXUXUXUXUX",
"UXUXUXUXUXUXUXUXUXUXUXUXUXUXUXUXUXUXUXUXUXUXUXUXUXUXUXUXUXuXsXpXe aXsXaXaXsXsXUXUXUXUXUXUXUXUXUXUXUXUXUXUXUXUXUXUXUXUXUXUXUXUXUX",
"UXUXUXUXUXUXUXUXUXUXUXUXUXUXUXUXUXUXUXUXUXUXUXUXUXUXUXUXUXiXaXL.aXpXsXaXpXaXsXsXUXUXUXUXUXUXUXUXUXUXUXUXUXUXUXUXUXUXUXUXUXUXUXUX",
"UXUXUXUXUXUXUXUXUXUXUXUXUXUXUXUXUXUXUXUXUXUXUXUXUXUXUXUXuXaXaXaXaXaXsXaXaXaXsXsXUXUXUXUXUXUXUXUXUXUXUXUXUXUXUXUXUXUXUXUXUXUXUXUX",
"UXUXUXUXUXUXUXUXUXUXUXUXUXUXUXUXUXUXUXUXUXUXUXUXUXUXUXUXiXpXkXsXpXsXkXpXpXsXsXpXkXUXUXUXUXUXUXUXUXUXUXUXUXUXUXUXUXUXUXUXUXUXUXUX",
"UXUXUXUXUXUXUXUXUXUXUXUXUXUXUXUXUXUXUXUXUXUXUXUXUXUXUXuXaXpXiXaXsXsXsXiXaXsXaXe sXkXUXUXUXUXUXUXUXUXUXUXUXUXUXUXUXUXUXUXUXUXUXUX",
"UXUXUXUXUXUXUXUXUXUXUXUXUXUXUXUXUXUXUXUXUXUXUXUXUXUXiXpXpXaXiXpXsXsXaXL.aXsXsXaXaXsXsXUXUXUXUXUXUXUXUXUXUXUXUXUXUXUXUXUXUXUXUXUX",
"UXUXUXUXUXUXUXUXUXUXUXUXUXUXUXUXUXUXUXUXUXUXUXUXuXaXaXaXpXiXsXuXsXw sXuXpXpXkXsXaXaXaXaXsXUXUXUXUXUXUXUXUXUXUXUXUXUXUXUXUXUXUXUX",
"UXUXUXUXUXUXUXUXUXUXUXUXUXUXUXUXUXUXUXUXUXUXUXUXUXUXUXUXUXUXsXaXsXUXUXsXkXaXsXUXUXUXUXUXUXUXUXUXUXUXUXUXUXUXUXUXUXUXUXUXUXUXUXUX"
};
