/* XPM */
static char *e18e359224bd4cfc8dac61db8a71966a4eOssVIzqARtc4mX[] = {
/* columns rows colors chars-per-pixel */
"64 64 256 2 ",
"   c #010601",
".  c #000C00",
"X  c #080B05",
"o  c #001400",
"O  c #011B01",
"+  c #071909",
"@  c #0E190D",
"#  c #012400",
"$  c #012B00",
"%  c #082709",
"&  c #152508",
"*  c #013301",
"=  c #023B02",
"-  c #0A3C04",
";  c #0C3C0B",
":  c #063509",
">  c #173906",
",  c #082711",
"<  c #172916",
"1  c #0A3816",
"2  c #173916",
"3  c #243811",
"4  c #123822",
"5  c #283A2B",
"6  c #024403",
"7  c #024A01",
"8  c #02430B",
"9  c #0C430D",
"0  c #044C0B",
"q  c #0B4807",
"w  c #164608",
"e  c #075707",
"r  c #155A08",
"t  c #084916",
"y  c #144B14",
"u  c #164718",
"i  c #0A5617",
"p  c #14541B",
"a  c #1B541D",
"s  c #145B1B",
"d  c #175915",
"f  c #244A17",
"g  c #344A16",
"h  c #25581B",
"j  c #2E540D",
"k  c #0B6509",
"l  c #16660C",
"z  c #0D6616",
"x  c #196619",
"c  c #1B771B",
"v  c #17750B",
"b  c #266609",
"n  c #24651C",
"m  c #276A1A",
"M  c #26781A",
"N  c #34771A",
"B  c #2F6C0E",
"V  c #194925",
"C  c #075625",
"Z  c #1B5C23",
"A  c #185626",
"S  c #185839",
"D  c #0A4F2E",
"F  c #254926",
"G  c #245C23",
"H  c #285929",
"J  c #285B34",
"K  c #36512F",
"L  c #1C6324",
"P  c #186828",
"I  c #1B7529",
"U  c #1B6936",
"Y  c #1D7635",
"T  c #086827",
"R  c #236B23",
"E  c #2B6C24",
"W  c #236C2C",
"Q  c #2B6B2B",
"!  c #286428",
"~  c #346828",
"^  c #277728",
"/  c #367929",
"(  c #286936",
")  c #336D34",
"_  c #366839",
"`  c #2B7B34",
"'  c #297737",
"]  c #347B3C",
"[  c #387838",
"{  c #425B2B",
"}  c #456837",
"|  c #467938",
" . c #4C712C",
".. c #65773C",
"X. c #436A14",
"o. c #085B4E",
"O. c #2E5B48",
"+. c #176544",
"@. c #146C4F",
"#. c #266345",
"$. c #386C47",
"%. c #297745",
"&. c #387946",
"*. c #377953",
"=. c #2D7156",
"-. c #377B68",
";. c #277A68",
":. c #18756A",
">. c #445549",
",. c #486944",
"<. c #477946",
"1. c #577949",
"2. c #487756",
"3. c #547456",
"4. c #567866",
"5. c #6F7E55",
"6. c #2A8518",
"7. c #328E15",
"8. c #2A8329",
"9. c #378729",
"0. c #389826",
"q. c #2B8637",
"w. c #33833B",
"e. c #388837",
"r. c #3A9538",
"t. c #2F9434",
"y. c #3AA433",
"u. c #1A8116",
"i. c #57B51B",
"p. c #4FA614",
"a. c #468A38",
"s. c #568838",
"d. c #469838",
"f. c #4B912E",
"g. c #4AA439",
"h. c #55AC30",
"j. c #65B638",
"k. c #69AD2F",
"l. c #619F20",
"z. c #6CC433",
"x. c #6BC426",
"c. c #298543",
"v. c #358B42",
"b. c #3C8A44",
"n. c #3B854B",
"m. c #378647",
"M. c #399446",
"N. c #398756",
"B. c #3D9753",
"V. c #2B8F4D",
"C. c #398769",
"Z. c #338C71",
"A. c #3CA451",
"S. c #428C4C",
"D. c #478748",
"F. c #479747",
"G. c #599848",
"H. c #478857",
"J. c #499857",
"K. c #559958",
"L. c #568A4E",
"P. c #688A47",
"I. c #6A9151",
"U. c #4BA647",
"Y. c #56A848",
"T. c #59B449",
"R. c #48A456",
"E. c #5BAB5B",
"W. c #57A857",
"Q. c #5BB558",
"!. c #46B147",
"~. c #65B84A",
"^. c #65A95A",
"/. c #65B958",
"(. c #77BB57",
"). c #70A752",
"_. c #478A66",
"`. c #4A9665",
"'. c #559869",
"]. c #479779",
"[. c #549074",
"{. c #679C66",
"}. c #679979",
"|. c #70916E",
" X c #4AA767",
".X c #57A766",
"XX c #59B567",
"oX c #59A676",
"OX c #5DB573",
"+X c #4EB263",
"@X c #65AA6A",
"#X c #79A568",
"$X c #66B868",
"%X c #78BA6A",
"&X c #66AB75",
"*X c #69B776",
"=X c #74B879",
"-X c #7AA671",
";X c #6AC35B",
":X c #74C75A",
">X c #71CC4B",
",X c #6AC56A",
"<X c #74C968",
"1X c #6CC475",
"2X c #78C679",
"3X c #7AD46F",
"4X c #6CD45C",
"5X c #8AD135",
"6X c #96D62A",
"7X c #84B44F",
"8X c #88996C",
"9X c #8BB072",
"0X c #88D651",
"qX c #87C779",
"wX c #8BD272",
"eX c #AADA6C",
"rX c #8FE970",
"tX c #B1EF78",
"yX c #99E656",
"uX c #C1F878",
"iX c #398D86",
"pX c #4B988A",
"aX c #52AA8D",
"sX c #67AA8A",
"dX c #75A988",
"fX c #6AB687",
"gX c #78B987",
"hX c #77B895",
"jX c #59AEAB",
"kX c #60AAA6",
"lX c #79C885",
"zX c #7BC497",
"xX c #72CD8B",
"cX c #7FC5A0",
"vX c #83BA98",
"bX c #8BB786",
"nX c #99BB90",
"mX c #89CA8A",
"MX c #8BD287",
"NX c #87CA97",
"BX c #99CA94",
"VX c #88D796",
"CX c #94D28F",
"ZX c #A7D590",
"AX c #93E790",
"SX c #AFEF8D",
"DX c #91D5AC",
"FX c #A7D7A8",
"GX c #B9DAAF",
"HX c #92E6A1",
"JX c #AEE8A8",
"KX c #C9FD99",
"LX c #CAFF8A",
"PX c #CFF9AC",
"IX c #D2EEA4",
"UX c #D6F7C2",
/* pixels */
"w G.^.n Z C t U = i 8 ' %.T S C C Y n.6 q x = y Q ! _ Z 0 8 i = G.IXJXPXKXKXtX:X( = h.yX6X6X6X7X9XK X X X @ + O O e e k k 0.7.i.",
"q f.^.D.J.J.`.N.U C I U U %.+.U %.%.`.' 6 E n d G ) V p p p 6 6 JXUXPXPXPXSXSXtXbX$ 0X0X6X6XeXPXUXK X @ @ . + X H [ 8.Y.h.T.4Xj.",
"l Y.^.w.W U m.n.N.n.S.&.] U U N.U &.y ] Q [ | 6 = ! ) A ' s i q K.qXZXUXMXSXLXPXbX_ 8XeXuXLXLXPX|.X 3 X @ , O o | L.E e.9.g.T.0.",
"d.W.e.z I P C U m.A L ( $.%.H.U * D.&.d q / n = y 0 ! &.] y i i E = s ] n wXKX(.1.I. .IXIXKXUXIXX < 3 X + O O 1 # a m 9.v d.0.y.",
"r.8.z k M.m.x Z n._ ( * ] '.&.! ( y h d q ) E 6 0 6 9 J.[ J.[ s ' M.Y U ) ^.B w 1.1...ZXIXPXPX9XX 3 2 O # , . 1 u # d [ / E.g.r.",
"T e k I M.n.&.] ) | A o ; u ; G 9 $ : ! q Q / q 6 J.*X@X! D.K.J.q.J.Y M.w.@XB f.P. .I.P.I.IXUX#XX 2 # , 1 o 1 u u * - r d ^ F.e.",
"V.M.q.e.b.Q Q 9 A $ # * $ O ! u u - * y d E x / @X%X*XJ.m.Z m.b.U.Q.U.M.g.9.6.f. . .P.{ o : h # : > & % % # J _ * 9 $ = q d ^ x ",
"I  X%.W Q y Q h u $ * ; u - y h H @X* * = / E.@XK.` q.b.S.' ` R l d.Q.;X!.r.9.B B j P.nXL.# # ; * : # ; u % A _ <.[ 0 Q = = * # ",
"C &.( * - f H } ; - : h A - y y ; ! [ 8 * ` J.XXF.q.w.J.w.U ] ' m.W.9.d.U.t.d.M r f.ZX7XL.} - - ; 9 u ; $ o H ( Z K.b.' R [ a y ",
"$.J V 1 o 2 # u - - G d [ G 9 d ! a 8 t s ' P W R.*XW.q.m.' 0 A Q ~ 9.M 6.F.t.M N g.s.~ / <.y o d a h u $ o G D.J.F.r.B.] w.G 6 ",
"V 2.2 . . . # . ; h | 6 ^ D.d ! p i ' J.] ' ' I 0 .X.X&.' W = # = q b E / f.W.z x m e.[ A # 4 t * = y h u * ! [ .Xr.I 8.^ W Q h ",
"2 K % @ + o . . L.^.d.W.F.x W S.] `.&X.X%.' %.' L P J.D.W ( : p w j w q m a.D.e./ n ` ] = 1 1 V * 9 u u w - D.'.w.q.I I q.P [ [ ",
"X X o 5 @   ,.FXAX,Xg.g.d.F.` P oXVX X%.`.J.i A L ' Q D.H.J # : 9 _ 1 , ,.~ g h m ^ &.* 6 9 1 F u u 9 * * * ' W.q.t.q.t.q.I w.m.",
"o O @ @ <   4.FXqX3Xh.u.g.8.e *X*X XN.%.+.`.%.t Z ] [ ) L.2.# : h _   , 2 o 3 > w l 8 8 6 d 9 H u V V A p t ` K.R.c.u.M.x Y q.' ",
"o O < < + + X D.<X:X0.p.0.t.,X*X' B.`.*.`.`.: = a q # ; : : , u Q w + + .   & w w w d t 8 9 h - o 4 J A 8 0 ' E.XXq.y.R.8.q.' I ",
"O o , X . & % G f.0.v 0.0.r.8.W &XoXN.J [.H.$ A ) a y ) ! ( A ( d H # @ < X & g w - * 8 9 6 $ # o F J 1 t ( m.q.R.t.XXM.q.T I Y ",
"2 O O o . F f P.h.p.6.h.4X;XW./ o o . . . , J u = s x R E b.w.b.Q 2 % # + + & 3 > ; _ u G / j L.H 1 F 1 2 ( [ a.f.9.d.g.c z I P ",
"; : O o : ~ # s.7.7.~.rX>X;XqX9X_ . , & & . 1 H.P 7 r e r e ` b.Q w : O # + @ g # ~ <.| [ [ ^.I.% o O O O . ~ | N N 7.M 8.I q.q.",
") &.J o a G O | g.0.:X:XT.<X2XCX'.J O . < , 1 _ p d l x 7 x ` W 0 u 2 $ & $ O 3 g | B q R E.bX,.. % . & o u ) d e N 9.d.8.M.Y q.",
"r.a.=XQ [ ! # / d./.T./.;X$XAXCXFX{.V _ # : 1 $ = ^ q r e R e x t ( A u 2 # # + { P./ Y.$XK.<.. , . < o < _ a E 7 k t.r.c I c.c.",
"6.g.d.m / m O G.~.h.g.~.~.g.wXMX=XA $.*.1 $ 2 9 * | x 7 ^ x 6 d L t p A V 1 1 # g  .wX0XT.8.O @ O + o < ,.w Q ` z z 8.e.x R w.B.",
"0.7.N l 7 r 6 ~ a.d.Y.~.(./.wXqXb.t W ( A # : : - r m a.e.m n L ' * t t D ( t u j j a.Y.xXlXu . O < . K <.D.n e.z k r R n e.n e.",
"g.0./ ! J V V # o $ o G ~ $ D.@Xq.P Y B.( $ ; 9 w - d E.^ k R ^ b.i A p Z ) A p j - e r.,X*XA O < & . ~ a.^ B 9.k e m d a.D.| E ",
"U.e.0 G V 1 4 V 1 O _ L.&.Q ! $ s ^ T i %.p o $ o G.G.x ^ c l e c w.U ! Q ) e.l G.).m ^ c P <.H O o > <.e.7 r 9.e e a.a.e.a.h o ",
"9./ 7 n J u J V 1 O D.@X^.K./ ^ 6 P R.v.S.`.D.f I.SXMXW.u.k z z ^ ^ * p a n l 7.~.(.F.I S.&.J.' . F <.R 8.9.7.9.6.a.a.~ Q L.# & ",
"~.a.x R ( V V _ u * [ L.^.$XG.m r e ' M.fX*X=X{.mXCX$X3XXXy.t.q.M ^ L a h * d.j.z.j.Y.W.oX' B.Y o ,.'.M.r.r.Y.(. .a.K.$XL.* > X ",
"3XW./ ` i 8 m.( = Z F.r.e.e.U.Q.z r J.1XxXJ.*X@XqXAXE./.3X,Xt.e e a.&.H - <X0Xz.i.z.g.^.lX=XJ.P o ; m.M.F.XXd.r * j L.{.<.O & . ",
"e.^ q.e.n.U 0 i A n.^ E.,XQ.XX3X$XXXF.M.] *X.X] $XqXQ./.!.!.Q.t.c / ( $ o <X3XrX>XrXh.M D.=XOXR.h o x ` lXMXe = w > . O O K . . ",
"$ R I P Y s q.c.J.J..X$X1XVX2X2XAXW.2X+X.XOX Xv.1XAX/./.Y.U.y.A.a.e.( # * n T.rXrX0X(.).W.U.<X<XG.b / d.[ = 7 = w g f g { & > u ",
"' ` v.Y %.B.B.z n._..Xw.gXmX.XHXAXz XXJ.xXJ.R.B.E.W.Y.^.g.Q.!.I q.S.1.$ 6 R 6.f.<XrXG.#X^.wXrX>Xh.7.9.N m q 6 y > > g ..} : G H ",
"S.S.q.R.fXN.B.q.t ( m.gXgX}.BXHX,X8.R.W.B.1X XV.M.d.Y.~.g.T.y.y.M.D.L.# x e.U.W.E.@Xf ^.wX>XyX6X5Xx.0XeXG.[ d H d w g ..& B r e ",
"n.m..X*XJ.( R.Y S ( S.gXgXDXdXFXR.c J.F.m.J.A.q.t.r.;X:Xf./.U.M.s 0 * $ W R.J.b.D.@XL.G.~.b yX6Xz.tXuXSXa.[ $ ~ <.j ..X.w r 9.e ",
"B.*X@X'.J.`.OX`.( &.'.gXgXNXFXFX$Xd.D.&.( p i r U.T.g./.).@X<.9 ; 9 $ # R m.J.b.r.U.g.b f.7.eXuXuXuXeX .s ] o } g I.P.j B l N / ",
"J.c.r s e.q.` J.H.H.DXDXNXNXGX@Xa.J.D.8 o : u d e.Q.Q.Y.d.d O ; ; $ : # L S.J.v.U.g.b b N X.tXIXKXSXG.E ] = $ # ..9X> f.v k 9.^ ",
"i 6 n N M 9.8.w.: _.NXzXDXxXxXv.%.L.8 $ u u $ [ <XQ.,Xl O = ; 2 J u p $ ! ] ^ Y.6.9.e N s. ...9XSXSXqX/ Q ! $ > 8X .B M 9.n M x ",
"s / M s.:X:XQ.m $ _ hXcXZ. XXXt.v.H.1 : * : 6 8 E.*Xr.M.W.y * _ G w Z = ) =XE./ m 9. .G.P.X.g o { E K.K.0 s O ..8X3 E l d b m e ",
"L r b f.k.p.j.rXr [ oX Xc.+X!.I `.#.1 A u 9 a D.XX.Xw.J.=XK.9 E q r 0 0 H.&XD.E u - A -  . .& f H Q W m.v.s { 8X> E i i / h = e ",
"^ d.(.j.l.i.i.l.~.N G.R.J.W.R.w.&.t 1 t u J y ! @X Xv.R.J.F.n q d.c r L u # $ # _ 3.$.<.ZX9X$ 3.*.*.&.P W / I...a.w.q.z E n E d.",
"g.0Xk.i.z.p.p.i.i.>X>Xk a.e.&._ % t D u ( _ t Z J.J.XX Xm.b.W r M 9.E Q _ F u % 3.4.}.'.#XnX3.$.( D C s D.G./ ~ D.b.z ' x n e./ ",
"z.i.j.p.i.x.u.p.x.z.h.N ^.D.K # V t V ( H V ( * J.J.Y W.1XF.w.r x [ F.&.F V 1 # . X O.2.2 <.bX*.+.#.N.L.G.w / g.F.^ i x d n ^ 7 ",
"yXyXx.i.i.i.i.>X0XSX(. .#Xy # $.( s _ ) : J %.8 ` b.M.F.1X2XE d s 0 ! y # $ o . o , o 1 4.=.A N.+.+.[.I. .N Y.u.8.8.q.d x x r 7 ",
"j.0X0X0Xz.x.>XyXSXqXg 2 2 u h h / n x p t Z A D.OXE.,XE.$XVXMX*X'.D.# # ; : 4 + V J V t o.-.N.D D _._ ..).f.g.0.t.U.W.K.D.G.e.r.",
"7 W.wXf.j.k.l.a.<.# . O h E / v k 9.r * 8 ) t H.=XE.e.F.AXJXVXVXgXgXbXo # #   O.*.=.#.D D D T C T =.1.8Xs.g.y.y.u.T.W.F.n a.F.d.",
"T J.Q.d.G. .P.. o # o 1 <.m 6.0.l M l d 0 t i *X@X@XXXHXAX*XJXxX*XFXBX&.9 V 4 O.#._.+.=.;.;.C i U S 9XI.%XwX4X4X!.!.r.F.[ K.F.r.",
"U t P ] g o X & # F ) 6 l M v 0.f.6.M e 7 s ` *X*XS.VXVXS.=X2XlX&X$XbXK.9 $.=.*.@._.aXaXZ.C.Z.`.S 2.nX..ZXSXrXAXrX;X,XW.G.%X` b.",
"%.#.C A u & 3 o > h ~ m 7 z r.u.k M T.r.M r x &X&XNXNXVX*X=XH.J.CXgX&XL Z W %.=.C.;.Z.Z.].Z.oX[.,.bXnX9XqXwX3X3XAXAXAXAXJXCXb.z ",
"C.`.%.W  .w >  . .b r H O n z z c ~.Q.9.6.M b.=XDXzXdXNXzXmX&X9X@XlX&.i W ] 0 T @.-.o.Z.Z.aXC.=.|.P.9XqXAX^.Y.Y.;X3X$XQ.2XK.m.J.",
"N.n.R.E.N j k.eX7XP.} h y ] v.y.T.<X6.g.d.k .XVXvXdXvXvX}.{.I.|.NX=X0 P '..Xq.P U ;.Z.Z.].=.Z.[.bXX 1.CXAX<XG./.Y.Q.U.r W M.t J.",
"J.m.A.^ n B 5Xx.6X7XZX; G F.g.f.j.0.v 9.Q.r.c.'.O.>.>.5 @ . @ g a F.J..XHXVX%X$XP @.o.@.:.-.O.bX>.w ) &XVXVX*XF.] W i 6 b.L 0 L ",
"XXF.q.8.~  .k.6X6XeXBXo Q F.6.0.0.v 6.^ e.b.A . X   X X   . X { <.K.*X1XXXF.U.Q.F.N.aX;.pX4.4.dX& _ ' 0 OXVX X8 ) K.n.%.J.D.A ' ",
"wX9.8.9.|  .SXtX7XeX,.o P e.Y.9.^ W.W.m F.D.d H + @ X < . 5 >.|.mX2XXX^ l 6.u.6.M J.oXC.O.>.nX} u V ( ( c.B.U L ( '.L.u *.4.vX[.",
"tX(.h./  .j 9XPXIXBXo D L F.W.$XmX*XE # e / E ~ #   X   + sXhXgXK.$XW.,XY.7.u.6.g.r.'.*.V dXP.3 _ %.%.' P J.%.D.&.<.o 2.|.3.O.  ",
"%X).B  .3 K % L.FX2.S S ] XXOX.XoXt # 6 l q h n 2 o   2.[.sXNXDXNX=XW.d.>Xj.u.z.~.g.XX&._ 1.~ h G A A %.n.' n.U *.V X 4.}.    X ",
"m ).s.P.{ { K . , #.-.o.B.OXt +.=._.=.s d e r E h J }.hXhXsXhXNXNXCX%Xd.(.tXz.4XT.;XW.e.| q f 6 s ] i ' W S N.S D + o >.5     + ",
"w P.7XZXnX  < + O.-.;.:.@.o.o.pXpX].N.^ 9.M v r ] =XgXhXhX&XNXgXdXDXBXZX).k.SX(.Y.F.) ) ) <.` x i w.6 p *.=.S =.D . . .     4 O.",
"- > P.IX8X  @ , =.Z.:.:.o.o.jXjXkXpXN.i ^ ^ k ^ J.NXzXhXsX[.NXDXFXFXnX#X9XwXwX%XE.F.A <.y P F.v.r.x d O A H._.sXhXdX$.. < X 2 I.",
"9 -XUX8XX 5 5 4 4.Z.iXZ.aXiXjXjXpXC.V.i I c 7 I J.fXzXzXhX@XS..XsX=X_ o - #X9X| H.y K 1.Z ' z e ^ .X[ a : _.hX].kXhX[.: o g h m ",
"K.FXGX,.X 4 5 J [.Z.Z.pXjXjXpXiXZ.N.V.W x x x = oXfXoXoXlXlXJ.z U t 9 w > o X $ 2 2 3.H y e k 8.1XK.J.a ( oXzXoX+.H.( y q ~ r r ",
"d  .#X3     X J [.pXkXiX:.aXiXiX`.V.I L L ! ! O H.fXzXxX&X.X+XA.J.c.P L G a o o o { H } <.n ^ 1XlX'.&X( &X=X.XxXXXR.w.=X2XG./ / ",
"9.qXJX-XV O 2 4.[.].iX:.iXiX:.Z.P ' v.' ) G : o A oXC.V.%.M.+XA.c.q.B.` L.<.$.3.O K 1.}  .D.VXlX*X'.fX&XNXVX*XOXM.M.R.,X2Xa.9.x ",
"2X=XBXBX<.$.F 3.4.[.pX-.Z.@.6 6 e ^ q.] _ H % o $.[.`.+.T P i T +XxX+XA.N.`.[.BX|.2 ~ / a.=XNX'.oXoX`.%.oX=X*XM.T y.+X+X2X8.^ 8.",
"$XlX%XBX.X=X,.X , S O.=.+.U T z e ^ i Z F 4 V % [._.sX XoX`.V.zXVXOXB.B.xXhX}.hX-Xf | b %X&XDXaXsXoXN.gXD B.*XB.q.+X+Xt.XXM.l e.",
"R.@XmXZX%X=X,.. , o o V 2.J.` k 7 E Z Z V 1 1 4 *.oXN.B.[._.DXDX*X.XV.V.c.zXsXdXgXy d E.lXoXDXpX_.J.oXOX`.U `. XOX+XV.V.,Xe.e 9.",
"*X=XMXCX2X%XI.  4 1 O O *.H.I 0 r / W Z *.F X D _.V.C.*.aXcXDX[.J.n.i OXZ.Z.cXoXJ.b.E.,X1XaXkXpX*.N.U %.V.N.V.fXaX X+XV.1XR.F./ "
};
